# Blender 3.5.0
# www.blender.org
o radius_8
v 0.139513 0.012000 1.995128
v 0.139513 -0.012000 1.995128
v -0.000000 0.012000 0.000000
v 0.000000 -0.012000 0.000000
v 0.069795 -0.012000 1.998677
v 0.069795 0.012000 1.998677
v -0.000000 -0.012000 1.999895
v 0.000000 0.012000 1.999895
v -0.069795 -0.012000 1.998677
v -0.069795 0.012000 1.998677
v -0.139513 -0.012000 1.995128
v -0.139513 0.012000 1.995128
vn 0.9976 -0.0000 -0.0698
vn 0.0508 -0.0000 0.9987
vn 0.0341 -0.0000 0.9994
vn -0.0000 -0.0000 1.0000
vn -0.0341 -0.0000 0.9994
vn -0.0508 -0.0000 0.9987
vn 0.9976 -0.0000 0.0698
vn -0.0000 1.0000 -0.0000
vn -0.0000 -1.0000 -0.0000
vt 0.000000 0.000000
vt 0.511115 1.000000
vt 1.000000 0.000000
vt 0.511115 0.500000
vt 0.000000 1.000000
vt 1.000000 1.000000
vt 0.505560 0.500000
vt 0.505560 1.000000
vt 0.500004 0.500000
vt 0.500004 1.000000
vt 0.494448 0.500000
vt 0.494448 1.000000
vt 0.488893 0.500000
vt 1.000000 0.000000
vt 0.000000 0.000000
vt 0.488893 1.000000
s 1
f 1/1/1 2/3/1 4/6/1 3/5/1
f 2/4/2 1/2/2 6/8/3 5/7/3
f 5/7/3 6/8/3 8/10/4 7/9/4
f 7/9/4 8/10/4 10/12/5 9/11/5
f 9/11/5 10/12/5 12/16/6 11/13/6
f 12/15/7 11/14/7 4/6/7 3/5/7
f 1/2/8 3/5/8 12/16/8 10/12/8 8/10/8 6/8/8
f 4/6/9 2/4/9 5/7/9 7/9/9 9/11/9 11/14/9
