# Blender 3.5.0
# www.blender.org
o radius_30
v 0.517589 -0.012123 1.931669
v 0.449860 -0.012123 1.948556
v 0.449860 0.012123 1.948556
v 0.381582 -0.012123 1.963069
v 0.381582 0.012123 1.963069
v 0.312839 -0.012123 1.975190
v 0.312839 0.012123 1.975190
v 0.243716 0.012123 1.984905
v 0.243716 -0.012123 1.984905
v 0.174295 -0.012123 1.992202
v 0.174295 0.012123 1.992202
v 0.104662 0.012123 1.997071
v 0.104662 -0.012123 1.997071
v 0.034902 0.012123 1.999507
v 0.034902 -0.012123 1.999507
v -0.034902 0.012123 1.999507
v -0.034902 -0.012123 1.999507
v -0.104662 -0.012123 1.997071
v -0.104662 0.012123 1.997071
v -0.174295 -0.012123 1.992202
v -0.174295 0.012123 1.992202
v -0.243716 0.012123 1.984905
v -0.243716 -0.012123 1.984905
v -0.312839 -0.012123 1.975190
v -0.312839 0.012123 1.975190
v -0.381582 0.012123 1.963069
v -0.381582 -0.012123 1.963069
v -0.449860 0.012123 1.948556
v -0.449860 -0.012123 1.948556
v -0.517638 0.012123 1.931852
v 0.517638 0.012123 1.931852
v -0.000000 0.012123 0.000000
v -0.517638 -0.012123 1.931852
v 0.000000 -0.012123 0.000000
vn 0.2406 -0.0039 0.9706
vn 0.2243 -0.0019 0.9745
vn 0.1908 -0.0000 0.9816
vn 0.1564 -0.0000 0.9877
vn 0.1219 -0.0000 0.9925
vn 0.0872 -0.0000 0.9962
vn 0.0523 -0.0000 0.9986
vn 0.0175 -0.0000 0.9998
vn -0.0175 -0.0000 0.9998
vn -0.0523 -0.0000 0.9986
vn -0.0872 -0.0000 0.9962
vn -0.1219 -0.0000 0.9925
vn -0.1564 -0.0000 0.9877
vn -0.1908 -0.0000 0.9816
vn -0.2236 -0.0000 0.9747
vn -0.2393 -0.0000 0.9709
vn 0.9659 -0.0000 -0.2588
vn 0.9659 -0.0000 0.2588
vn -0.0000 -1.0000 -0.0000
vn -0.0000 1.0000 -0.0000
vt 0.541670 0.500000
vt 1.000000 0.000000
vt 0.536115 0.500000
vt 0.536115 1.000000
vt 0.530559 0.500000
vt 0.530559 1.000000
vt 0.525004 0.500000
vt 0.525004 1.000000
vt 0.519448 1.000000
vt 0.519448 0.500000
vt 0.513893 0.500000
vt 0.513893 1.000000
vt 0.508337 1.000000
vt 0.508337 0.500000
vt 0.502782 1.000000
vt 0.502782 0.500000
vt 0.497226 1.000000
vt 0.497226 0.500000
vt 0.491671 0.500000
vt 0.491671 1.000000
vt 0.486115 0.500000
vt 0.486115 1.000000
vt 0.480560 1.000000
vt 0.480560 0.500000
vt 0.475004 0.500000
vt 0.475004 1.000000
vt 0.469448 1.000000
vt 0.469448 0.500000
vt 0.463893 1.000000
vt 0.463893 0.500000
vt 0.000000 0.000000
vt 0.458337 1.000000
vt 0.541670 1.000000
vt 0.000000 0.000000
vt 0.000000 1.000000
vt 0.818983 0.167094
vt 1.000000 0.000000
vt 1.000000 1.000000
s 1
f 1/1/1 31/33/1 3/4/2 2/3/2
f 2/3/2 3/4/2 5/6/3 4/5/3
f 4/5/3 5/6/3 7/8/4 6/7/4
f 6/7/4 7/8/4 8/9/5 9/10/5
f 9/10/5 8/9/5 11/12/6 10/11/6
f 10/11/6 11/12/6 12/13/7 13/14/7
f 13/14/7 12/13/7 14/15/8 15/16/8
f 15/16/8 14/15/8 16/17/9 17/18/9
f 17/18/9 16/17/9 19/20/10 18/19/10
f 18/19/10 19/20/10 21/22/11 20/21/11
f 20/21/11 21/22/11 22/23/12 23/24/12
f 23/24/12 22/23/12 25/26/13 24/25/13
f 24/25/13 25/26/13 26/27/14 27/28/14
f 27/28/14 26/27/14 28/29/15 29/30/15
f 29/30/15 28/29/15 30/32/16 33/36/16
f 31/34/17 1/2/17 34/38/17 32/35/17
f 30/31/18 33/37/18 34/38/18 32/35/18
f 1/2/19 2/3/19 4/5/19 6/7/19 9/10/19 10/11/19 13/14/19 15/16/19 17/18/19 18/19/19 20/21/19 23/24/19 24/25/19 27/28/19 29/30/19 33/37/19 34/38/19
f 3/4/20 31/34/20 32/35/20 30/32/20 28/29/20 26/27/20 25/26/20 22/23/20 21/22/20 19/20/20 16/17/20 14/15/20 12/13/20 11/12/20 8/9/20 7/8/20 5/6/20
