# Blender 3.5.0
# www.blender.org
o radius_50
v 0.845248 -0.012000 1.812640
v 0.845248 0.012000 1.812640
v 0.781473 -0.012000 1.841035
v 0.781473 0.012000 1.841035
v 0.716746 -0.012000 1.867186
v 0.716746 0.012000 1.867186
v 0.651145 -0.012000 1.891063
v 0.651145 0.012000 1.891063
v 0.584751 -0.012000 1.912636
v 0.584751 0.012000 1.912636
v 0.517645 -0.012000 1.931878
v 0.517645 0.012000 1.931878
v 0.449908 -0.012000 1.948767
v 0.449908 0.012000 1.948767
v 0.381623 -0.012000 1.963281
v 0.381623 0.012000 1.963281
v 0.312873 -0.012000 1.975404
v 0.312873 0.012000 1.975404
v 0.243742 -0.012000 1.985119
v 0.243742 0.012000 1.985119
v 0.174314 -0.012000 1.992417
v 0.174314 0.012000 1.992417
v 0.104673 -0.012000 1.997286
v 0.104673 0.012000 1.997286
v 0.034905 -0.012000 1.999723
v 0.034905 0.012000 1.999723
v -0.034905 -0.012000 1.999723
v -0.034905 0.012000 1.999723
v -0.104673 -0.012000 1.997286
v -0.104673 0.012000 1.997286
v -0.174314 -0.012000 1.992417
v -0.174314 0.012000 1.992417
v -0.243742 -0.012000 1.985119
v -0.243742 0.012000 1.985119
v -0.312873 -0.012000 1.975404
v -0.312873 0.012000 1.975404
v -0.381623 -0.012000 1.963281
v -0.381623 0.012000 1.963281
v -0.449908 -0.012000 1.948767
v -0.449908 0.012000 1.948767
v -0.517645 -0.012000 1.931878
v -0.517645 0.012000 1.931878
v -0.584751 -0.012000 1.912636
v -0.584751 0.012000 1.912636
v -0.651145 -0.012000 1.891063
v -0.651145 0.012000 1.891063
v -0.716746 -0.012000 1.867186
v -0.716746 0.012000 1.867186
v -0.781473 -0.012000 1.841035
v -0.781473 0.012000 1.841035
v -0.845248 -0.012000 1.812640
v -0.845237 0.012000 1.812616
v -0.000000 0.012000 0.000000
v 0.000000 -0.012000 0.000000
vn 0.4067 -0.0000 0.9135
vn 0.3907 -0.0000 0.9205
vn 0.3584 -0.0000 0.9336
vn 0.3256 -0.0000 0.9455
vn 0.2924 -0.0000 0.9563
vn 0.2588 -0.0000 0.9659
vn 0.2250 -0.0000 0.9744
vn 0.1908 -0.0000 0.9816
vn 0.1564 -0.0000 0.9877
vn 0.1219 -0.0000 0.9925
vn 0.0872 -0.0000 0.9962
vn 0.0523 -0.0000 0.9986
vn 0.0175 -0.0000 0.9998
vn -0.0175 -0.0000 0.9998
vn -0.0523 -0.0000 0.9986
vn -0.0872 -0.0000 0.9962
vn -0.1219 -0.0000 0.9925
vn -0.1564 -0.0000 0.9877
vn -0.1908 -0.0000 0.9816
vn -0.2250 -0.0000 0.9744
vn -0.2588 -0.0000 0.9659
vn -0.2924 -0.0000 0.9563
vn -0.3256 -0.0000 0.9455
vn -0.3584 -0.0000 0.9336
vn -0.3908 0.0003 0.9205
vn -0.4069 0.0006 0.9135
vn 0.9063 -0.0000 0.4226
vn 0.9063 -0.0000 -0.4226
vn -0.0000 1.0000 -0.0000
vn -0.0000 -1.0000 -0.0000
vt 1.000000 0.000000
vt 0.855949 0.167286
vt 0.190521 0.334572
vt 0.000000 0.000000
vt 0.563892 0.500000
vt 0.563892 1.000000
vt 0.558337 0.500000
vt 0.558337 1.000000
vt 0.552781 0.500000
vt 0.552781 1.000000
vt 0.547226 0.500000
vt 0.547226 1.000000
vt 0.541670 0.500000
vt 0.541670 1.000000
vt 0.536115 0.500000
vt 0.536115 1.000000
vt 0.530559 0.500000
vt 0.530559 1.000000
vt 0.525004 0.500000
vt 0.525004 1.000000
vt 0.519448 0.500000
vt 0.519448 1.000000
vt 0.513893 0.500000
vt 0.513893 1.000000
vt 0.508337 0.500000
vt 0.508337 1.000000
vt 0.502782 0.500000
vt 0.502782 1.000000
vt 0.497226 0.500000
vt 0.497226 1.000000
vt 0.491671 0.500000
vt 0.491671 1.000000
vt 0.486115 0.500000
vt 0.486115 1.000000
vt 0.480560 0.500000
vt 0.480560 1.000000
vt 0.475004 0.500000
vt 0.475004 1.000000
vt 0.469448 0.500000
vt 0.469448 1.000000
vt 0.463893 0.500000
vt 0.463893 1.000000
vt 0.458337 0.500000
vt 0.458337 1.000000
vt 0.452782 0.500000
vt 0.452782 1.000000
vt 0.447226 0.500000
vt 0.447226 1.000000
vt 0.441671 0.500000
vt 0.441671 1.000000
vt 0.436115 0.500000
vt 0.436115 1.000000
vt 0.430559 0.500000
vt 1.000000 0.000000
vt 0.000000 0.000000
vt 0.430559 1.000000
vt 0.000000 1.000000
vt 1.000000 1.000000
s 1
f 1/2/1 2/3/1 4/6/2 3/5/2
f 3/5/2 4/6/2 6/8/3 5/7/3
f 5/7/3 6/8/3 8/10/4 7/9/4
f 7/9/4 8/10/4 10/12/5 9/11/5
f 9/11/5 10/12/5 12/14/6 11/13/6
f 11/13/6 12/14/6 14/16/7 13/15/7
f 13/15/7 14/16/7 16/18/8 15/17/8
f 15/17/8 16/18/8 18/20/9 17/19/9
f 17/19/9 18/20/9 20/22/10 19/21/10
f 19/21/10 20/22/10 22/24/11 21/23/11
f 21/23/11 22/24/11 24/26/12 23/25/12
f 23/25/12 24/26/12 26/28/13 25/27/13
f 25/27/13 26/28/13 28/30/14 27/29/14
f 27/29/14 28/30/14 30/32/15 29/31/15
f 29/31/15 30/32/15 32/34/16 31/33/16
f 31/33/16 32/34/16 34/36/17 33/35/17
f 33/35/17 34/36/17 36/38/18 35/37/18
f 35/37/18 36/38/18 38/40/19 37/39/19
f 37/39/19 38/40/19 40/42/20 39/41/20
f 39/41/20 40/42/20 42/44/21 41/43/21
f 41/43/21 42/44/21 44/46/22 43/45/22
f 43/45/22 44/46/22 46/48/23 45/47/23
f 45/47/23 46/48/23 48/50/24 47/49/24
f 47/49/24 48/50/24 50/52/25 49/51/25
f 49/51/25 50/52/25 52/56/26 51/53/26
f 52/55/27 51/54/27 54/58/27 53/57/27
f 2/4/28 1/1/28 54/58/28 53/57/28
f 2/4/29 53/57/29 52/56/29 50/52/29 48/50/29 46/48/29 44/46/29 42/44/29 40/42/29 38/40/29 36/38/29 34/36/29 32/34/29 30/32/29 28/30/29 26/28/29 24/26/29 22/24/29 20/22/29 18/20/29 16/18/29 14/16/29 12/14/29 10/12/29 8/10/29 6/8/29 4/6/29
f 1/2/30 3/5/30 5/7/30 7/9/30 9/11/30 11/13/30 13/15/30 15/17/30 17/19/30 19/21/30 21/23/30 23/25/30 25/27/30 27/29/30 29/31/30 31/33/30 33/35/30 35/37/30 37/39/30 39/41/30 41/43/30 43/45/30 45/47/30 47/49/30 49/51/30 51/54/30 54/58/30
