# Blender 3.5.0
# www.blender.org
o radius_15
v 0.261171 -0.012231 1.983790
v 0.261171 0.012231 1.983790
v 0.209057 -0.012231 1.989044
v 0.209057 0.012231 1.989044
v 0.139513 -0.012231 1.995128
v 0.139513 0.012231 1.995128
v 0.069799 -0.012231 1.998782
v 0.069799 0.012231 1.998782
v 0.000000 -0.012231 2.000000
v 0.000000 0.012231 2.000000
v -0.069799 -0.012231 1.998782
v -0.069799 0.012231 1.998782
v -0.139513 -0.012231 1.995128
v -0.139513 0.012231 1.995128
v -0.209057 -0.012231 1.989044
v -0.209057 0.012231 1.989044
v -0.261171 -0.012231 1.983790
v -0.261171 0.012231 1.983790
v -0.000000 0.012231 0.000000
v 0.000000 -0.012231 0.000000
vn 0.1003 -0.0000 0.9950
vn 0.0937 -0.0000 0.9956
vn 0.0698 -0.0000 0.9976
vn 0.0349 -0.0000 0.9994
vn -0.0000 -0.0000 1.0000
vn -0.0349 -0.0000 0.9994
vn -0.0698 -0.0000 0.9976
vn -0.0937 -0.0000 0.9956
vn -0.1003 -0.0000 0.9950
vn 0.9914 -0.0000 0.1305
vn 0.9914 -0.0000 -0.1305
vn -0.0000 1.0000 -0.0000
vn -0.0000 -1.0000 -0.0000
vt 1.000000 0.000000
vt 0.839417 0.168053
vt 0.175523 0.336106
vt 0.000000 0.000000
vt 0.516671 0.500000
vt 0.516671 1.000000
vt 0.511115 0.500000
vt 0.511115 1.000000
vt 0.505560 0.500000
vt 0.505560 1.000000
vt 0.500004 0.500000
vt 0.500004 1.000000
vt 0.494448 0.500000
vt 0.494448 1.000000
vt 0.488893 0.500000
vt 0.488893 1.000000
vt 0.483337 0.500000
vt 0.483337 1.000000
vt 0.824479 0.168053
vt 1.000000 0.000000
vt 0.000000 0.000000
vt 0.477782 1.000000
vt 0.000000 1.000000
vt 1.000000 1.000000
s 1
f 1/2/1 2/3/1 4/6/2 3/5/2
f 3/5/2 4/6/2 6/8/3 5/7/3
f 5/7/3 6/8/3 8/10/4 7/9/4
f 7/9/4 8/10/4 10/12/5 9/11/5
f 9/11/5 10/12/5 12/14/6 11/13/6
f 11/13/6 12/14/6 14/16/7 13/15/7
f 13/15/7 14/16/7 16/18/8 15/17/8
f 15/17/8 16/18/8 18/22/9 17/19/9
f 18/21/10 17/20/10 20/24/10 19/23/10
f 2/4/11 1/1/11 20/24/11 19/23/11
f 2/4/12 19/23/12 18/22/12 16/18/12 14/16/12 12/14/12 10/12/12 8/10/12 6/8/12 4/6/12
f 1/2/13 3/5/13 5/7/13 7/9/13 9/11/13 11/13/13 13/15/13 15/17/13 17/20/13 20/24/13
