# Blender v3.5.0 OBJ File: 'Map_1.blend'
# www.blender.org
mtllib slope_ground.mtl
o ground_slope_Cube.005
v -1.000000 -1.000000 2.000000
v -1.000000 -1.000000 -2.000000
v -1.000000 1.000000 -2.000000
v 1.000000 -1.000000 2.000000
v 1.000000 -1.000000 -2.000000
v 1.000000 1.000000 -2.000000
vt 0.625000 0.000000
vt 0.625000 0.250000
vt 0.375000 0.250000
vt 0.625000 0.500000
vt 0.375000 0.500000
vt 0.375000 0.750000
vt 0.125000 0.500000
vt 0.125000 0.750000
vt 0.875000 0.500000
vt 0.875000 0.750000
vt 0.625000 0.750000
vn -1.0000 0.0000 0.0000
vn 0.0000 0.0000 -1.0000
vn 1.0000 0.0000 0.0000
vn 0.0000 -1.0000 0.0000
vn 0.0000 0.8944 0.4472
usemtl ground
s off
f 1/1/1 3/2/1 2/3/1
f 2/3/2 3/2/2 6/4/2 5/5/2
f 5/5/3 6/4/3 4/6/3
f 2/7/4 5/5/4 4/6/4 1/8/4
f 6/4/5 3/9/5 1/10/5 4/11/5
