# Blender 3.3.1
# www.blender.org
mtllib door_1_door.mtl
o Cube.001
v -1.000000 0.000000 0.148853
v -1.000000 1.757006 0.148853
v -1.000000 0.000000 -0.148853
v -1.000000 1.757006 -0.148853
v 0.000000 0.000000 -0.148853
v 0.000000 1.868183 -0.148853
v 0.000000 0.000000 0.148853
v 0.000000 1.868183 0.148853
v -0.566734 0.000000 -0.148853
v -0.566734 1.757006 0.148853
v -0.566734 1.757006 -0.148853
v -0.566734 0.000000 0.148853
v -0.355329 1.868183 -0.148853
v -0.355329 0.000000 0.148853
v -0.355329 0.000000 -0.148853
v -0.355329 1.868183 0.148853
v -1.000000 0.882130 0.148853
v -1.000000 0.882130 -0.148853
v 0.000000 0.937948 -0.148853
v -0.566734 0.882130 0.148853
v -0.355329 0.937948 0.148853
v -0.355329 0.937948 -0.148853
v 0.000000 0.937948 0.148853
v -0.566734 0.882130 -0.148853
v -1.000000 0.372917 -0.148853
v 0.000000 0.396514 0.148853
v 0.000000 0.396514 -0.148853
v -0.566734 0.372917 -0.148853
v -0.566734 0.372917 0.148853
v -0.355329 0.396514 0.148853
v -0.355329 0.396514 -0.148853
v -1.000000 0.372917 0.148853
vn -1.0000 -0.0000 -0.0000
vn -0.0000 -0.0000 1.0000
vn -0.0000 1.0000 -0.0000
vn -0.0000 -1.0000 -0.0000
vn -0.0000 -0.0000 -1.0000
vn -0.4655 0.8851 -0.0000
vn 1.0000 -0.0000 -0.0000
vt 0.125000 0.750000
vt 0.375000 0.000000
vt 0.375000 1.000000
vt 0.625000 0.000000
vt 0.625000 1.000000
vt 0.875000 0.750000
vt 0.125000 0.500000
vt 0.375000 0.250000
vt 0.875000 0.500000
vt 0.625000 0.250000
vt 0.375000 0.375000
vt 0.250000 0.500000
vt 0.750000 0.500000
vt 0.625000 0.375000
vt 0.250000 0.750000
vt 0.375000 0.875000
vt 0.750000 0.750000
vt 0.625000 0.875000
vt 0.179158 0.500000
vt 0.375000 0.304158
vt 0.820842 0.750000
vt 0.625000 0.945842
vt 0.820842 0.500000
vt 0.625000 0.304158
vt 0.179158 0.750000
vt 0.375000 0.945842
vt 0.794416 0.500000
vt 0.625000 0.330584
vt 0.205584 0.750000
vt 0.375000 0.919416
vt 0.205584 0.500000
vt 0.375000 0.330584
vt 0.625000 0.919416
vt 0.794416 0.750000
vt 0.500516 0.000000
vt 0.500516 1.000000
vt 0.500516 0.250000
vt 0.500516 0.375000
vt 0.500516 0.945842
vt 0.500516 0.919416
vt 0.500516 0.330584
vt 0.500516 0.875000
vt 0.500516 0.304158
vt 0.428061 0.250000
vt 0.428061 0.875000
vt 0.428061 0.375000
vt 0.428061 0.304158
vt 0.428061 0.945842
vt 0.428061 0.919416
vt 0.428061 0.330584
vt 0.428061 0.000000
vt 0.428061 1.000000
s 0
f 17/35/1 2/4/1 4/10/1 18/37/1
f 20/39/2 10/22/2 2/5/2 17/36/2
f 11/23/3 4/9/3 2/6/3 10/21/3
f 15/31/4 5/12/4 7/15/4 14/29/4
f 22/41/5 13/28/5 6/14/5 19/38/5
f 18/37/5 4/10/5 11/24/5 24/43/5
f 3/7/4 9/19/4 12/25/4 1/1/4
f 13/27/6 11/23/6 10/21/6 16/34/6
f 21/40/2 16/33/2 10/22/2 20/39/2
f 23/42/2 8/18/2 16/33/2 21/40/2
f 6/13/3 13/27/3 16/34/3 8/17/3
f 24/43/5 11/24/5 13/28/5 22/41/5
f 9/19/4 15/31/4 14/29/4 12/25/4
f 1/2/1 32/51/1 25/44/1 3/8/1
f 12/26/2 29/48/2 32/52/2 1/3/2
f 15/32/5 31/50/5 27/46/5 5/11/5
f 3/8/5 25/44/5 28/47/5 9/20/5
f 14/30/2 30/49/2 29/48/2 12/26/2
f 7/16/2 26/45/2 30/49/2 14/30/2
f 9/20/5 28/47/5 31/50/5 15/32/5
f 32/51/1 17/35/1 18/37/1 25/44/1
f 29/48/2 20/39/2 17/36/2 32/52/2
f 31/50/5 22/41/5 19/38/5 27/46/5
f 25/44/5 18/37/5 24/43/5 28/47/5
f 30/49/2 21/40/2 20/39/2 29/48/2
f 26/45/2 23/42/2 21/40/2 30/49/2
f 28/47/5 24/43/5 22/41/5 31/50/5
f 8/18/7 23/42/7 19/38/7 6/14/7
f 19/38/7 23/42/7 26/45/7 27/46/7
f 27/46/7 26/45/7 7/16/7 5/12/7
