# Blender 3.6.0
# www.blender.org
mtllib arrow.mtl
o arrow_export
v 0.000000 -0.608725 -0.071997
v 0.000000 0.589813 -0.071997
v 0.000000 -0.608725 0.071997
v 0.000000 0.589813 0.071997
v -0.489666 0.905171 0.071997
v -0.494403 0.912269 0.066662
v -0.600829 0.805429 0.071997
v -0.606188 0.804800 0.066662
v -0.550404 0.924427 0.071997
v -0.549781 0.929826 0.066662
v -0.589578 0.921385 0.071997
v -0.586578 0.926969 0.066662
v -0.595743 0.922859 0.066662
v -0.611552 0.900260 0.071997
v -0.612782 0.906478 0.066662
v -0.617249 0.897482 0.066662
v -0.616132 0.861236 0.071997
v -0.621552 0.860826 0.066662
v -0.600829 0.805429 -0.071997
v -0.606188 0.804800 -0.066662
v -0.489666 0.905171 -0.071997
v -0.494403 0.912269 -0.066662
v -0.616132 0.861236 -0.071997
v -0.621552 0.860826 -0.066662
v -0.611552 0.900260 -0.071997
v -0.617249 0.897482 -0.066662
v -0.612782 0.906478 -0.066662
v -0.589578 0.921385 -0.071997
v -0.595743 0.922859 -0.066662
v -0.586578 0.926969 -0.066662
v -0.550404 0.924427 -0.071997
v -0.549781 0.929826 -0.066662
v 0.018922 -0.612457 -0.071997
v 0.024114 -0.613480 -0.066662
v -0.024114 -0.613480 -0.066662
v -0.018922 -0.612457 -0.071997
v 0.015482 -0.628761 -0.066662
v 0.012165 -0.624468 -0.071997
v 0.009517 -0.633483 -0.066662
v -0.000000 -0.636795 -0.066662
v 0.004198 -0.630815 -0.071997
v -0.000000 -0.636795 -0.066662
v -0.009517 -0.633483 -0.066662
v -0.004198 -0.630815 -0.071997
v -0.015482 -0.628761 -0.066662
v -0.012165 -0.624468 -0.071997
v -0.083245 0.719402 -0.071997
v -0.087697 0.726333 -0.066662
v 0.087697 0.726333 -0.066662
v 0.083245 0.719402 -0.071997
v -0.056305 0.715906 -0.066662
v -0.053483 0.709586 -0.071997
v -0.019401 0.710424 -0.066662
v -0.018437 0.704426 -0.071997
v 0.019401 0.710424 -0.066662
v 0.018437 0.704426 -0.071997
v 0.056305 0.715906 -0.066662
v 0.053483 0.709586 -0.071997
v -0.018922 -0.612457 0.071997
v -0.024114 -0.613480 0.066662
v 0.024114 -0.613480 0.066662
v 0.018922 -0.612457 0.071997
v -0.015482 -0.628761 0.066662
v -0.012165 -0.624468 0.071997
v -0.009517 -0.633483 0.066662
v 0.000000 -0.636795 0.066662
v -0.004198 -0.630815 0.071997
v 0.000000 -0.636795 0.066662
v 0.009517 -0.633483 0.066662
v 0.004198 -0.630815 0.071997
v 0.015482 -0.628761 0.066662
v 0.012165 -0.624468 0.071997
v 0.083245 0.719402 0.071997
v 0.087697 0.726333 0.066662
v -0.087697 0.726333 0.066662
v -0.083245 0.719402 0.071997
v 0.056305 0.715906 0.066662
v 0.053483 0.709586 0.071997
v 0.019401 0.710424 0.066662
v 0.018437 0.704426 0.071997
v -0.019401 0.710424 0.066662
v -0.018437 0.704426 0.071997
v -0.056305 0.715906 0.066662
v -0.053483 0.709586 0.071997
v 0.600829 0.805429 0.071997
v 0.606188 0.804800 0.066662
v 0.489666 0.905171 0.071997
v 0.494403 0.912269 0.066662
v 0.616132 0.861236 0.071997
v 0.621552 0.860826 0.066662
v 0.611552 0.900260 0.071997
v 0.617249 0.897482 0.066662
v 0.612782 0.906478 0.066662
v 0.589578 0.921385 0.071997
v 0.595743 0.922859 0.066662
v 0.586578 0.926969 0.066662
v 0.550404 0.924427 0.071997
v 0.549781 0.929826 0.066662
v 0.489666 0.905171 -0.071997
v 0.494403 0.912269 -0.066662
v 0.600829 0.805429 -0.071997
v 0.606188 0.804800 -0.066662
v 0.550404 0.924427 -0.071997
v 0.549781 0.929826 -0.066662
v 0.589578 0.921385 -0.071997
v 0.586578 0.926969 -0.066662
v 0.595743 0.922859 -0.066662
v 0.611552 0.900260 -0.071997
v 0.612782 0.906478 -0.066662
v 0.617249 0.897482 -0.066662
v 0.616132 0.861236 -0.071997
v 0.621552 0.860826 -0.066662
vn -0.9930 -0.1185 -0.0000
vn -0.9268 -0.3756 -0.0000
vn -0.0000 -0.0000 -1.0000
vn 0.1575 0.9875 -0.0000
vn -0.1498 0.9887 -0.0000
vn -0.8078 -0.5894 -0.0000
vn -0.9246 -0.3810 -0.0000
vn -0.0000 -0.0000 1.0000
vn 0.2269 0.9739 -0.0000
vn 0.0722 0.9974 -0.0000
vn 0.9246 -0.3810 -0.0000
vn 0.8078 -0.5894 -0.0000
vn 0.3286 -0.9445 -0.0000
vn 0.3286 -0.9445 0.0001
vn -0.3286 -0.9445 -0.0000
vn -0.3286 -0.9445 -0.0001
vn -0.4606 -0.8876 -0.0000
vn 0.4606 -0.8876 -0.0000
vn 0.4090 0.9125 -0.0000
vn -0.0722 0.9974 -0.0000
vn -0.2269 0.9739 -0.0000
vn -0.4090 0.9125 -0.0000
vn -0.4030 0.9152 -0.0000
vn 0.9268 -0.3756 -0.0000
vn 0.9930 -0.1185 -0.0000
vn 0.4030 0.9152 -0.0000
vn -0.6160 0.7877 -0.0000
vn -0.7629 0.6465 -0.0000
vn -0.9820 0.1886 -0.0000
vn -0.1575 0.9875 -0.0000
vn 0.7629 0.6465 -0.0000
vn 0.6160 0.7877 -0.0000
vn 0.1498 0.9887 -0.0000
vn 0.9820 0.1886 -0.0000
vn -0.2483 0.6489 0.7192
vn -0.0837 0.7115 0.6977
vn -0.4705 0.5447 0.6942
vn -0.6386 0.2737 0.7192
vn -0.5258 0.4916 0.6942
vn -0.7077 0.1116 0.6977
vn -0.6386 0.2737 -0.7192
vn -0.7077 0.1116 -0.6977
vn -0.5258 0.4916 -0.6942
vn -0.2483 0.6489 -0.7192
vn -0.4705 0.5447 -0.6942
vn -0.0837 0.7115 -0.6977
vn 0.3792 -0.6183 -0.6885
vn 0.1312 -0.7097 -0.6922
vn 0.2885 -0.6390 -0.7130
vn -0.1312 -0.7097 -0.6922
vn -0.3792 -0.6183 -0.6885
vn -0.2886 -0.6391 -0.7129
vn -0.3792 -0.6183 0.6885
vn -0.1312 -0.7097 0.6922
vn -0.2885 -0.6390 0.7130
vn 0.1312 -0.7097 0.6922
vn 0.3792 -0.6183 0.6885
vn 0.2886 -0.6391 0.7129
vn 0.6386 0.2737 0.7192
vn 0.7077 0.1116 0.6977
vn 0.5258 0.4916 0.6942
vn 0.2483 0.6489 0.7192
vn 0.4705 0.5447 0.6942
vn 0.0837 0.7115 0.6977
vn 0.2483 0.6489 -0.7192
vn 0.0837 0.7115 -0.6977
vn 0.4705 0.5447 -0.6942
vn 0.6386 0.2737 -0.7192
vn 0.5258 0.4916 -0.6942
vn 0.7077 0.1116 -0.6977
vn 0.6626 -0.2729 -0.6975
vn 0.5665 -0.4330 -0.7012
vn -0.5665 -0.4330 -0.7012
vn -0.6626 -0.2729 -0.6975
vn 0.3122 0.6964 -0.6461
vn 0.1571 0.6769 -0.7192
vn 0.1570 0.6769 -0.7192
vn 0.0481 0.6674 -0.7431
vn -0.0481 0.6674 -0.7431
vn -0.1571 0.6769 -0.7192
vn -0.1570 0.6769 -0.7192
vn -0.3122 0.6964 -0.6461
vn -0.6626 -0.2729 0.6975
vn -0.5665 -0.4330 0.7012
vn 0.5665 -0.4330 0.7012
vn 0.6626 -0.2729 0.6975
vn -0.3122 0.6964 0.6461
vn -0.1571 0.6769 0.7192
vn -0.1570 0.6769 0.7192
vn -0.0481 0.6674 0.7431
vn 0.0481 0.6674 0.7431
vn 0.1571 0.6769 0.7192
vn 0.1570 0.6769 0.7192
vn 0.3122 0.6964 0.6461
vn 0.1114 0.6920 0.7133
vn 0.3054 0.6948 0.6511
vn 0.3055 0.6948 0.6511
vn 0.3054 0.6948 -0.6511
vn 0.1114 0.6920 -0.7133
vn 0.3055 0.6948 -0.6511
vn -0.6961 -0.0809 0.7134
vn -0.6961 -0.0809 -0.7134
vn -0.6636 -0.2689 0.6980
vn -0.6636 -0.2689 -0.6980
vn 0.6961 -0.0809 0.7134
vn 0.6636 -0.2689 0.6980
vn 0.6636 -0.2689 -0.6980
vn 0.6961 -0.0809 -0.7134
vn -0.1114 0.6920 0.7133
vn -0.1114 0.6920 -0.7133
vn -0.3054 0.6948 0.6511
vn -0.3055 0.6948 0.6511
vn -0.3054 0.6948 -0.6511
vn -0.3055 0.6948 -0.6511
vt 0.603793 0.009262
vt 0.603793 0.240738
vt 0.595818 0.240738
vt 0.595818 0.009262
vt 0.384409 0.251258
vt 0.382514 0.251252
vt 0.386688 0.255844
vt 0.849600 0.740738
vt 0.849601 0.509262
vt 0.854947 0.509262
vt 0.854947 0.740738
vt 0.607255 0.366127
vt 0.624099 0.359388
vt 0.624092 0.285360
vt 0.622526 0.273514
vt 0.618670 0.264452
vt 0.612934 0.257581
vt 0.605367 0.252963
vt 0.596384 0.251259
vt 0.381376 0.240738
vt 0.381376 0.009262
vt 0.383784 0.009262
vt 0.383784 0.240738
vt 0.380473 0.000000
vt 0.380079 0.000000
vt 0.383126 0.000000
vt 0.760525 0.509262
vt 0.760525 0.740738
vt 0.754588 0.740738
vt 0.754588 0.509262
vt 0.383784 0.009262
vt 0.381376 0.009262
vt 0.381376 0.240738
vt 0.379815 0.240738
vt 0.379815 0.009262
vt 0.379815 0.240738
vt 0.380458 0.240738
vt 0.380458 0.009262
vt 0.381376 0.009262
vt 0.624797 0.365157
vt 0.381376 0.009262
vt 0.765973 0.509262
vt 0.765973 0.740738
vt 0.754588 0.509262
vt 0.754588 0.740738
vt 0.381655 0.000000
vt 0.380473 0.000000
vt 0.765973 0.509262
vt 0.765973 0.740738
vt 0.840049 0.740738
vt 0.840049 0.509262
vt 0.381751 0.000000
vt 0.383642 0.000000
vt 0.380520 0.000000
vt 0.381751 0.000000
vt 0.624099 0.875000
vt 0.633796 0.865259
vt 0.607255 0.875000
vt 0.386688 0.875000
vt 0.384409 0.878446
vt 0.596384 0.984433
vt 0.605367 0.987220
vt 0.612934 0.986386
vt 0.618670 0.982383
vt 0.622526 0.975249
vt 0.624092 0.964186
vt 0.624099 0.890162
vt 0.624111 0.884998
vt 0.624118 0.875000
vt 0.624118 0.879360
vt 0.595818 0.009262
vt 0.603793 0.240738
vt 0.603793 0.009262
vt 0.633796 0.865259
vt 0.840049 0.509262
vt 0.840049 0.740738
vt 0.858718 0.740738
vt 0.858718 0.509262
vt 0.872002 0.509262
vt 0.872002 0.740738
vt 0.622322 0.009262
vt 0.622322 0.240738
vt 0.603793 0.009262
vt 0.596384 0.251259
vt 0.612934 0.257581
vt 0.618670 0.264452
vt 0.622526 0.273514
vt 0.624092 0.285360
vt 0.624099 0.359388
vt 0.595818 0.009262
vt 0.624797 0.365157
vt 0.624118 0.370199
vt 0.624118 0.370199
vt 0.624118 0.374559
vt 0.624118 0.374559
vt 0.624111 0.374555
vt 0.624099 0.374550
vt 0.383784 0.009262
vt 0.381279 0.251245
vt 0.380838 0.251245
vt 0.380838 0.251245
vt 0.381236 0.251252
vt 0.382422 0.251258
vt 0.849601 0.740738
vt 0.849600 0.509262
vt 0.872002 0.509262
vt 0.854947 0.740738
vt 0.603793 0.009262
vt 0.622322 0.240738
vt 0.624092 0.964186
vt 0.622526 0.975249
vt 0.618670 0.982383
vt 0.612934 0.986386
vt 0.605367 0.987220
vt 0.596384 0.984433
vt 0.855443 0.750000
vt 0.855720 0.740738
vt 0.873926 0.750000
vt 0.875000 0.740738
vt 0.611943 0.256048
vt 0.613974 0.257877
vt 0.856795 0.500000
vt 0.855720 0.509262
vt 0.624040 0.000000
vt 0.625000 0.009262
vt 0.856795 0.750000
vt 0.855443 0.500000
vt 0.873926 0.500000
vt 0.875000 0.509262
vt 0.760525 0.500000
vt 0.764917 0.500000
vt 0.754588 0.500000
vt 0.759934 0.500000
vt 0.754588 0.500000
vt 0.764917 0.500000
vt 0.760525 0.750000
vt 0.764917 0.750000
vt 0.754588 0.750000
vt 0.759934 0.750000
vt 0.754588 0.750000
vt 0.764917 0.750000
vt 0.849430 0.750000
vt 0.840049 0.750000
vt 0.840049 0.500000
vt 0.849430 0.500000
vt 0.849601 0.509262
vt 0.849751 0.750000
vt 0.849751 0.500000
vt 0.873926 0.500000
vt 0.604314 0.000000
vt 0.604835 0.251711
vt 0.595818 0.000000
vt 0.603650 0.000000
vt 0.603650 0.000000
vt 0.604314 0.000000
vt 0.604835 0.251711
vt 0.873926 0.750000
vt 0.849751 0.750000
vt 0.849751 0.500000
vt 0.840049 0.750000
vt 0.849430 0.750000
vt 0.849430 0.500000
vt 0.840049 0.500000
vt 0.765973 0.500000
vt 0.838846 0.500000
vt 0.838846 0.750000
vt 0.765973 0.750000
vt 0.383784 0.000000
vt 0.595617 0.000000
vt 0.595617 0.000000
vt 0.838846 0.500000
vt 0.765973 0.500000
vt 0.765973 0.750000
vt 0.838846 0.750000
s 1
f 18/1/1 24/2/1 20/3/2 8/4/2
f 33/5/3 38/6/3 1/7/3
f 10/8/4 32/9/4 30/10/5 12/11/5
f 33/5/3 1/7/3 2/12/3 50/13/3 99/14/3 103/15/3 105/16/3 108/17/3 111/18/3 101/19/3
f 45/20/6 63/21/6 60/22/7 35/23/7
f 64/24/8 67/25/8 3/26/8
f 51/27/9 83/28/9 81/29/10 53/30/10
f 34/23/11 61/31/11 71/32/12 37/33/12
f 40/34/13 68/35/14 66/35/15 42/36/16
f 43/37/17 65/38/17 63/39/6 45/20/6
f 47/13/3 52/40/3 2/12/3
f 37/33/12 71/41/12 69/38/18 39/37/18
f 48/42/19 75/43/19 83/28/9 51/27/9
f 53/44/10 81/45/10 79/29/20 55/30/20
f 55/44/20 79/45/20 77/28/21 57/27/21
f 59/46/8 64/47/8 3/26/8
f 49/48/22 74/49/22 88/50/23 100/51/23
f 72/52/8 62/53/8 3/26/8
f 67/25/8 70/54/8 3/26/8
f 70/54/8 72/55/8 3/26/8
f 73/56/8 78/57/8 4/58/8
f 3/59/8 62/60/8 85/61/8 89/62/8 91/63/8 94/64/8 97/65/8 87/66/8 73/67/8 4/58/8
f 84/68/8 76/67/8 4/58/8
f 80/69/8 82/70/8 4/58/8
f 82/70/8 84/68/8 4/58/8
f 86/71/24 102/3/24 112/72/25 90/73/25
f 78/74/8 80/69/8 4/58/8
f 48/42/19 22/75/26 6/76/26 75/43/19
f 13/77/27 29/78/27 27/79/28 15/80/28
f 16/81/29 26/82/29 24/2/1 18/83/1
f 1/7/3 36/5/3 19/84/3 23/18/3 25/85/3 28/86/3 31/87/3 21/88/3 47/89/3 2/12/3
f 60/31/7 8/90/2 20/3/2 35/23/7
f 57/27/21 77/28/21 74/49/22 49/48/22
f 52/91/3 54/92/3 2/12/3
f 54/93/3 56/94/3 2/12/3
f 56/95/3 58/96/3 2/12/3
f 58/96/3 50/97/3 2/12/3
f 61/98/11 34/23/11 102/3/24 86/4/24
f 38/6/3 41/99/3 1/7/3
f 41/99/3 44/100/3 1/7/3
f 44/101/3 46/102/3 1/7/3
f 46/102/3 36/103/3 1/7/3
f 98/104/30 104/105/30 100/51/23 88/50/23
f 93/80/31 109/106/31 107/78/32 95/77/32
f 96/107/33 106/10/33 104/105/30 98/104/30
f 90/108/25 112/72/25 110/109/34 92/81/34
f 59/60/8 3/59/8 4/58/8 76/67/8 5/110/8 9/111/8 11/112/8 14/113/8 17/114/8 7/115/8
f 11/116/35 12/11/36 13/117/37
f 14/118/38 15/80/39 16/119/40
f 25/85/41 26/120/42 27/121/43
f 28/122/44 29/78/45 30/123/46
f 39/37/47 40/34/48 41/99/49
f 42/36/50 43/37/51 44/100/52
f 65/38/53 66/35/54 67/25/55
f 68/35/56 69/38/57 70/54/58
f 91/124/59 92/81/60 93/125/61
f 94/126/62 95/77/63 96/117/64
f 105/127/65 106/10/66 107/123/67
f 108/128/68 109/106/69 110/129/70
f 34/23/71 37/33/72 38/6/72 33/5/71
f 37/33/72 39/37/47 41/99/49 38/6/72
f 40/34/48 42/36/50 44/100/52 41/99/49
f 43/37/51 45/20/73 46/102/73 44/101/52
f 45/20/73 35/23/74 36/103/74 46/102/73
f 48/42/75 51/27/76 52/130/77 47/131/75
f 51/27/76 53/30/78 54/132/78 52/133/77
f 53/44/78 55/30/79 56/134/79 54/132/78
f 55/44/79 57/27/80 58/133/81 56/132/79
f 57/27/80 49/48/82 50/135/82 58/130/81
f 60/22/83 63/21/84 64/47/84 59/46/83
f 63/39/84 65/38/53 67/25/55 64/24/84
f 66/35/54 68/35/56 70/54/58 67/25/55
f 69/38/57 71/41/85 72/55/85 70/54/58
f 71/32/85 61/31/86 62/53/86 72/52/85
f 74/49/87 77/28/88 78/136/89 73/137/87
f 77/28/88 79/45/90 80/138/90 78/139/89
f 79/29/90 81/45/91 82/140/91 80/138/90
f 81/29/91 83/28/92 84/139/93 82/138/91
f 83/28/92 75/43/94 76/141/94 84/136/93
f 9/142/95 5/143/96 6/76/97 10/8/95
f 21/144/98 31/145/99 32/146/99 22/75/100
f 11/116/35 9/147/95 10/8/95 12/11/36
f 31/148/99 28/127/44 30/10/46 32/9/99
f 29/78/27 13/77/27 12/11/5 30/10/5
f 14/118/38 11/126/35 13/77/37 15/80/39
f 28/122/44 25/149/41 27/79/43 29/78/45
f 26/129/29 16/119/29 15/80/28 27/79/28
f 17/150/101 14/124/38 16/81/40 18/83/101
f 25/85/41 23/18/102 24/151/102 26/120/42
f 7/152/103 17/153/101 18/1/101 8/4/103
f 23/18/102 19/84/104 20/3/104 24/2/102
f 68/35/14 40/34/13 39/37/18 69/38/18
f 65/38/17 43/37/17 42/36/16 66/35/15
f 89/154/105 85/152/106 86/71/106 90/73/105
f 101/19/107 111/18/108 112/72/108 102/3/107
f 91/124/59 89/155/105 90/108/105 92/81/60
f 111/18/108 108/17/68 110/120/70 112/156/108
f 109/106/31 93/80/31 92/119/34 110/129/34
f 94/126/62 91/157/59 93/80/61 95/77/63
f 108/128/68 105/122/65 107/78/67 109/106/69
f 106/10/33 96/107/33 95/77/32 107/78/32
f 97/158/109 94/116/62 96/107/64 98/104/109
f 105/127/65 103/159/110 104/105/110 106/10/66
f 87/160/111 97/161/109 98/104/109 88/50/112
f 103/162/110 99/163/113 100/51/114 104/105/110
f 47/164/75 21/165/98 22/75/100 48/42/75
f 5/166/96 76/167/94 75/43/94 6/76/97
f 59/168/83 7/169/103 8/90/103 60/31/83
f 19/84/104 36/5/74 35/23/74 20/3/104
f 85/170/106 62/168/86 61/98/86 86/4/106
f 33/5/71 101/19/107 102/3/107 34/23/71
f 49/48/82 100/51/114 99/171/113 50/172/82
f 73/173/87 87/174/111 88/50/112 74/49/87
f 6/76/26 22/75/26 32/146/4 10/8/4
