# Blender 3.6.0
# www.blender.org
mtllib terrain_corner.mtl
o terrain_corner.001
v -6.000000 0.000000 -6.000000
v -5.245914 2.556774 -6.000000
v -2.000000 2.556774 -6.754086
v -6.000000 0.000000 -7.000000
v -4.783854 3.188201 -6.000000
v -2.000000 3.188201 -7.216146
v -2.000000 0.000000 -10.000000
v -2.000000 0.000000 -6.000000
v -2.000000 2.556774 -9.245914
v -2.754086 2.556774 -6.000000
v -3.000000 0.000000 -10.000000
v -2.000000 3.188201 -8.783854
v -3.216146 3.188201 -6.000000
v -5.245914 2.556774 -7.000000
v -4.783854 3.188201 -7.216146
v -3.000000 2.556774 -9.245914
v -2.754086 2.556774 -6.754086
v -3.216146 3.188201 -8.783854
v -3.216146 3.188201 -7.216146
v -5.245914 2.556774 -9.000000
v -5.000000 0.000000 -10.000000
v -6.000000 0.000000 -9.000000
v -4.783854 3.188201 -8.783854
v -5.000000 2.556774 -9.245914
vn -0.8070 0.5905 -0.0000
vn 0.9592 0.2829 -0.0000
vn 0.8070 0.5905 -0.0000
vn -0.0000 1.0000 -0.0000
vn -0.0000 0.2829 0.9592
vn -0.0000 0.5905 0.8070
vn -0.9592 0.2829 -0.0000
vn -0.0000 0.5905 -0.8070
vn -0.0000 0.2829 -0.9592
vn -0.6922 0.2042 -0.6922
vn -0.5631 0.6048 -0.5631
vt 0.708735 0.303155
vt 0.708735 0.392138
vt 0.570427 0.392138
vt 0.595008 0.303155
vt 0.819208 0.730233
vt 0.738332 0.701707
vt 0.839167 0.415814
vt 0.839167 0.831628
vt 0.708735 0.785624
vt 0.708735 0.570427
vt 0.570427 0.570427
vt 0.392138 0.570427
vt 0.392138 0.392138
vt 0.728693 0.314419
vt 0.708735 0.000000
vt 0.809570 0.285894
vt 0.839167 0.369810
vt 0.708735 0.415814
vt 0.570427 0.708735
vt 0.392138 0.708735
vt 0.595008 0.000000
vt 0.708734 0.000000
vt 0.303155 0.708735
vt 0.303155 0.595009
vt 0.000000 0.708735
vt 0.000000 0.595009
vt 0.303155 0.367556
vt -0.000000 0.367557
vt 0.939359 0.297028
vt 0.899808 0.297028
vt 0.839167 0.000000
vt 1.000000 0.000000
vt 0.367556 0.303155
vt 0.367556 0.000000
vt 0.919584 0.387201
s 0
f 2/1/1 5/2/1 15/3/1 14/4/1
f 17/5/2 10/6/2 8/7/2
f 19/8/3 13/9/3 10/6/3 17/5/3
f 15/3/4 5/2/4 13/10/4 19/11/4
f 15/3/4 19/11/4 18/12/4 23/13/4
f 17/14/5 8/15/5 3/16/5
f 3/16/6 6/17/6 19/18/6 17/14/6
f 19/11/4 6/19/4 12/20/4 18/12/4
f 4/21/7 1/22/7 2/1/7 14/4/7
f 18/12/8 12/20/8 9/23/8 16/24/8
f 7/25/9 11/26/9 16/24/9 9/23/9
f 24/27/9 16/24/9 11/26/9 21/28/9
f 20/29/10 24/30/10 21/31/10 22/32/10
f 14/4/7 20/33/7 22/34/7 4/21/7
f 24/30/11 20/29/11 23/35/11
f 23/13/1 20/33/1 14/4/1 15/3/1
f 16/24/8 24/27/8 23/13/8 18/12/8
