# Blender 3.6.0
# www.blender.org
mtllib terrain_end.mtl
o terrain_end.001
v 2.000000 0.000000 2.000000
v 2.000000 2.556774 1.245914
v 2.000000 3.188201 0.783854
v 4.471172 2.556774 0.826586
v 4.000000 0.000000 2.000000
v 4.000000 2.556774 1.245914
v 4.000000 3.188201 0.783854
v 5.002205 0.000000 1.000000
v 2.000000 0.000000 -2.000000
v 2.000000 2.556774 -1.245914
v 2.000000 3.188201 -0.783854
v 4.471172 2.556774 -0.826586
v 4.000000 0.000000 -2.000000
v 4.000000 2.556774 -1.245914
v 4.000000 3.188201 -0.783854
v 5.002205 0.000000 -1.000000
vn -0.0000 0.2829 0.9592
vn 0.5833 0.4797 0.6555
vn -0.0000 0.5905 0.8070
vn 0.6799 0.1986 0.7058
vn -0.0000 0.2829 -0.9592
vn 0.5833 0.4797 -0.6555
vn -0.0000 0.5905 -0.8070
vn -0.0000 1.0000 -0.0000
vn 0.6799 0.1986 -0.7058
vn 0.9791 0.2034 -0.0000
vn 0.8015 0.5980 -0.0000
vt 0.827166 0.904019
vt 0.597119 0.673662
vt 0.769951 0.501062
vt 0.999999 0.731418
vt 0.528235 0.703545
vt 0.462331 0.668849
vt 0.529594 0.606048
vt 0.702427 0.433447
vt 0.267761 0.906712
vt 0.409429 1.000000
vt 0.096729 0.172601
vt 0.269562 0.000000
vt 0.499609 0.230356
vt 0.326777 0.402957
vt 0.294014 0.473250
vt 0.394301 0.470572
vt 0.328845 0.540506
vt 0.567133 0.297971
vt 0.091966 0.730628
vt -0.000000 0.590013
s 0
f 5/1/1 6/2/1 2/3/1 1/4/1
f 6/5/2 4/6/2 7/7/2
f 7/7/3 3/8/3 2/3/3 6/2/3
f 8/9/4 4/6/4 6/5/4 5/10/4
f 13/11/5 9/12/5 10/13/5 14/14/5
f 14/15/6 15/16/6 12/17/6
f 15/16/7 14/14/7 10/13/7 11/18/7
f 7/7/8 15/16/8 11/18/8 3/8/8
f 16/19/9 13/20/9 14/15/9 12/17/9
f 16/19/10 12/17/10 4/6/10 8/9/10
f 12/17/11 15/16/11 7/7/11 4/6/11
